# Blender 4.0.2
# www.blender.org
mtllib pekka_ja_paetkae_light.mtl
o Circle
v 1.300000 0.060000 0.647358
v 1.180660 0.060000 0.704829
v 1.151185 0.060000 0.833966
v 1.233771 0.060000 0.937526
v 1.366229 0.060000 0.937526
v 1.448815 0.060000 0.833966
v 1.419340 0.060000 0.704829
v 1.300000 -0.040000 -0.200000
v 0.518169 -0.040000 0.176510
v 0.325072 -0.040000 1.022521
v 0.866116 -0.040000 1.700969
v 1.733884 -0.040000 1.700969
v 2.274928 -0.040000 1.022521
v 2.081831 -0.040000 0.176510
v 0.518169 0.060000 0.176510
v 1.300000 0.060000 -0.200000
v 0.325072 0.060000 1.022521
v 0.866116 0.060000 1.700969
v 1.733884 0.060000 1.700969
v 2.274928 0.060000 1.022521
v 2.081831 0.060000 0.176510
v 0.759079 0.060000 0.368630
v 1.300000 0.060000 0.108136
v 0.625482 0.060000 0.953955
v 0.999811 0.060000 1.423348
v 1.600188 0.060000 1.423348
v 1.974518 0.060000 0.953955
v 1.840921 0.060000 0.368630
vn -0.0000 1.0000 -0.0000
vn 0.9749 -0.0000 -0.2225
vn -0.0000 -0.0000 1.0000
vn -0.9749 -0.0000 -0.2225
vn 0.4339 -0.0000 -0.9010
vn 0.7818 -0.0000 0.6235
vn -0.7818 -0.0000 0.6235
vn -0.4339 -0.0000 -0.9010
vt 0.000000 0.000000
s 0
usemtl light
f 13/1/2 21/1/2 20/1/2
f 11/1/3 19/1/3 18/1/3
f 9/1/4 17/1/4 15/1/4
f 14/1/5 16/1/5 21/1/5
f 12/1/6 20/1/6 19/1/6
f 10/1/7 18/1/7 17/1/7
f 8/1/8 15/1/8 16/1/8
f 16/1/1 22/1/1 23/1/1
f 22/1/1 17/1/1 24/1/1
f 24/1/1 18/1/1 25/1/1
f 18/1/1 26/1/1 25/1/1
f 19/1/1 27/1/1 26/1/1
f 20/1/1 28/1/1 27/1/1
f 28/1/1 16/1/1 23/1/1
f 13/1/2 14/1/2 21/1/2
f 11/1/3 12/1/3 19/1/3
f 9/1/4 10/1/4 17/1/4
f 14/1/5 8/1/5 16/1/5
f 12/1/6 13/1/6 20/1/6
f 10/1/7 11/1/7 18/1/7
f 8/1/8 9/1/8 15/1/8
f 16/1/1 15/1/1 22/1/1
f 22/1/1 15/1/1 17/1/1
f 24/1/1 17/1/1 18/1/1
f 18/1/1 19/1/1 26/1/1
f 19/1/1 20/1/1 27/1/1
f 20/1/1 21/1/1 28/1/1
f 28/1/1 21/1/1 16/1/1
usemtl Material.009
f 23/1/1 2/1/1 1/1/1
f 22/1/1 3/1/1 2/1/1
f 24/1/1 4/1/1 3/1/1
f 4/1/1 26/1/1 5/1/1
f 26/1/1 6/1/1 5/1/1
f 27/1/1 7/1/1 6/1/1
f 28/1/1 1/1/1 7/1/1
f 23/1/1 22/1/1 2/1/1
f 22/1/1 24/1/1 3/1/1
f 24/1/1 25/1/1 4/1/1
f 4/1/1 25/1/1 26/1/1
f 26/1/1 27/1/1 6/1/1
f 27/1/1 28/1/1 7/1/1
f 28/1/1 23/1/1 1/1/1
usemtl Material.010
f 3/1/1 5/1/1 7/1/1
f 1/1/1 2/1/1 3/1/1
f 3/1/1 4/1/1 5/1/1
f 5/1/1 6/1/1 7/1/1
f 7/1/1 1/1/1 3/1/1
