# Blender 4.0.2
# www.blender.org
mtllib road.mtl
o Plane.001
v -5.000000 -1.000000 5.000000
v 5.000000 0.000000 5.000000
v -5.000000 -1.000000 -5.000000
v 5.000000 0.000000 -5.000000
v 0.333333 0.000000 5.000000
v 0.333333 0.000000 -5.000000
v -0.166667 0.000000 -5.000000
v -0.166667 0.000000 5.000000
v 2.400000 0.020000 -2.000000
v 2.600000 0.020000 -2.000000
v 2.400000 0.020000 -4.000000
v 2.600000 0.020000 -4.000000
v 9.000000 0.000000 5.000000
v 9.000000 0.000000 -5.000000
v 14.000000 0.000000 5.000000
v 14.000000 0.000000 -5.000000
v 20.000000 -1.000000 5.000000
v 20.000000 -1.000000 -5.000000
v 11.400000 0.020000 4.000000
v 11.600000 0.020000 4.000000
v 11.400000 0.020000 2.000000
v 11.600000 0.020000 2.000000
v -6.000000 -1.000000 5.000000
v -4.000000 -0.800000 5.000000
v -6.000000 -1.000000 -5.000000
v -4.000000 -0.800000 -5.000000
v -6.000000 -0.800000 -2.500000
v -6.000000 -1.000000 0.000000
v -6.000000 -0.800000 2.500000
v -5.500000 -0.800000 5.000000
v -5.000000 -0.800000 5.000000
v -4.500000 -0.800000 5.000000
v -4.000000 -0.920071 2.500000
v -4.000000 -0.800000 0.000000
v -3.801775 -0.817254 -2.500000
v -4.500000 -0.800000 -5.000000
v -5.000000 -0.800000 -5.000000
v -5.500000 -0.800000 -5.000000
v -5.500000 -0.200000 2.500000
v -5.500000 -0.800000 0.000000
v -5.500000 -0.800000 -2.500000
v -5.000000 -0.800000 2.500000
v -5.000000 -0.800000 0.000000
v -5.000000 -0.200000 -2.500000
v -4.500000 -0.800000 2.500000
v -4.500000 -0.800000 0.000000
v -4.500000 -0.911161 -2.500000
v 20.000002 -1.000000 -5.000000
v 18.000002 -0.800000 -5.000000
v 19.999998 -1.000000 5.000000
v 17.999998 -0.800000 5.000000
v 20.000000 -0.800000 2.500000
v 20.000000 -1.000000 0.000000
v 20.000000 -0.800000 -2.500000
v 19.500002 -0.800000 -5.000000
v 19.000002 -0.800000 -5.000000
v 18.500002 -0.800000 -5.000000
v 18.000000 -0.800000 -2.500000
v 18.000000 -0.800000 -0.000000
v 18.000000 -0.800000 2.500000
v 18.499998 -0.800000 5.000000
v 18.999998 -0.800000 5.000000
v 19.499998 -0.800000 5.000000
v 19.500000 -0.200000 -2.500000
v 19.500000 -0.800000 0.000000
v 19.500000 -0.800000 2.500000
v 19.000000 -0.800000 -2.500000
v 19.000000 -0.800000 0.000000
v 19.000000 -0.200000 2.500000
v 18.500000 -0.800000 -2.500000
v 18.500000 -0.800000 -0.000000
v 18.500000 -0.800000 2.500000
v 7.000000 -0.200000 -5.000000
v 7.000000 -0.200000 5.000000
v -5.000000 -1.000000 -3.000000
v -5.000000 -1.000000 -1.000000
v -5.000000 -1.000000 1.000000
v -5.000000 -1.000000 3.000000
v 5.000000 0.000000 3.000000
v 5.000000 0.000000 1.000000
v 5.000000 0.000000 -1.000000
v 5.000000 0.000000 -3.000000
v -1.133333 -0.200000 -5.000000
v -2.100000 -0.400000 -5.000000
v -3.066667 -0.600000 -5.000000
v -4.033333 -0.800000 -5.000000
v -0.066667 0.000000 5.000000
v 0.033333 0.000000 5.000000
v 0.133334 0.000000 5.000000
v 0.233333 0.000000 5.000000
v 4.066667 0.000000 -5.000000
v 3.133333 0.000000 -5.000000
v 2.200000 0.000000 -5.000000
v 1.266667 0.000000 -5.000000
v 4.066667 0.000000 5.000000
v 3.133333 0.000000 5.000000
v 2.200000 0.000000 5.000000
v 1.266667 0.000000 5.000000
v 0.333333 0.000000 3.000000
v 0.333333 0.000000 1.000000
v 0.333333 0.000000 -1.000000
v 0.333333 0.000000 -3.000000
v 0.233333 0.000000 -5.000000
v 0.133333 0.000000 -5.000000
v 0.033333 0.000000 -5.000000
v -0.066667 0.000000 -5.000000
v -4.033333 -0.800000 5.000000
v -3.066667 -0.600000 5.000000
v -2.100000 -0.400000 5.000000
v -1.133333 -0.200000 5.000000
v -0.166667 0.000000 3.000000
v -0.166667 0.000000 1.000000
v -0.166667 0.000000 -1.000000
v -0.166667 0.000000 -3.000000
v 9.000000 0.000000 3.000000
v 9.000000 0.000000 1.000000
v 9.000000 0.000000 -1.000000
v 9.000000 0.000000 -3.000000
v 6.600000 -0.160000 -5.000000
v 6.200000 -0.120000 -5.000000
v 5.800000 -0.080000 -5.000000
v 5.400000 -0.040000 -5.000000
v 7.400000 -0.160000 5.000000
v 7.800000 -0.120000 5.000000
v 8.200000 -0.080000 5.000000
v 8.600000 -0.040000 5.000000
v 14.000000 0.000000 3.000000
v 14.000000 0.000000 1.000000
v 14.000000 0.000000 -1.000000
v 14.000000 0.000000 -3.000000
v 13.000000 0.000000 -5.000000
v 12.000000 0.000000 -5.000000
v 11.000000 0.000000 -5.000000
v 10.000000 0.000000 -5.000000
v 10.000000 0.000000 5.000000
v 11.000000 0.000000 5.000000
v 12.000000 0.000000 5.000000
v 13.000000 0.000000 5.000000
v 20.000000 -1.000000 3.000000
v 20.000000 -1.000000 1.000000
v 20.000000 -1.000000 -1.000000
v 20.000000 -1.000000 -3.000000
v 18.799999 -0.800000 -5.000000
v 17.599998 -0.600000 -5.000000
v 16.400000 -0.400000 -5.000000
v 15.200000 -0.200000 -5.000000
v 15.200000 -0.200000 5.000000
v 16.400000 -0.400000 5.000000
v 17.600000 -0.600000 5.000000
v 18.799999 -0.800000 5.000000
v 8.600000 -0.040000 -5.000000
v 8.200001 -0.080000 -5.000000
v 7.800001 -0.120000 -5.000000
v 7.400001 -0.160000 -5.000000
v 5.400000 -0.040000 5.000000
v 5.800000 -0.080000 5.000000
v 6.200000 -0.120000 5.000000
v 6.600000 -0.160000 5.000000
v 7.000000 -0.200000 3.000000
v 7.000000 -0.200000 1.000000
v 7.000000 -0.200000 -1.000000
v 7.000000 -0.200000 -3.000000
v 5.400000 -0.040000 -3.000000
v 5.800000 -0.080000 -3.000000
v 6.200000 -0.120000 -3.000000
v 6.600000 -0.160000 -3.000000
v 5.400000 -0.040000 -1.000000
v 5.800000 -0.080000 -1.000000
v 6.200000 -0.120000 -1.000000
v 6.600000 -0.160000 -1.000000
v 5.400000 -0.040000 1.000000
v 5.800000 -0.080000 1.000000
v 6.200000 -0.120000 1.000000
v 6.600000 -0.160000 1.000000
v 5.400000 -0.040000 3.000000
v 5.800000 -0.080000 3.000000
v 6.200000 -0.120000 3.000000
v 6.600000 -0.160000 3.000000
v 15.200000 -0.200000 -3.000000
v 16.400000 -0.400000 -3.000000
v 17.600000 -0.600000 -3.000000
v 18.799999 -0.800000 -3.000000
v 15.200000 -0.200000 -1.000000
v 16.400000 -0.400000 -1.000000
v 17.600000 -0.600000 -1.000000
v 18.799999 -0.800000 -1.000000
v 15.200000 -0.200000 1.000000
v 16.400000 -0.400000 1.000000
v 17.600000 -0.600000 1.000000
v 18.799999 -0.800000 1.000000
v 15.200000 -0.200000 3.000000
v 16.400000 -0.400000 3.000000
v 17.600000 -0.600000 3.000000
v 18.799999 -0.800000 3.000000
v 10.000000 0.000000 -3.000000
v 11.000000 0.000000 -3.000000
v 12.000000 0.000000 -3.000000
v 13.000000 0.000000 -3.000000
v 10.000000 0.000000 -1.000000
v 11.000000 0.000000 -1.000000
v 12.000000 0.000000 -1.000000
v 13.000000 0.000000 -1.000000
v 10.000000 0.000000 1.000000
v 11.000000 0.000000 1.000000
v 12.000000 0.000000 1.000000
v 13.000000 0.000000 1.000000
v 10.000000 0.000000 3.000000
v 11.000000 0.000000 3.000000
v 12.000000 0.000000 3.000000
v 13.000000 0.000000 3.000000
v 7.400000 -0.160000 -3.000000
v 7.800000 -0.120000 -3.000000
v 8.200000 -0.080000 -3.000000
v 8.600000 -0.040000 -3.000000
v 7.400000 -0.160000 -1.000000
v 7.800000 -0.120000 -1.000000
v 8.200000 -0.080000 -1.000000
v 8.600000 -0.040000 -1.000000
v 7.400000 -0.160000 1.000000
v 7.800000 -0.120000 1.000000
v 8.200000 -0.080000 1.000000
v 8.600000 -0.040000 1.000000
v 7.400000 -0.160000 3.000000
v 7.800000 -0.120000 3.000000
v 8.200000 -0.080000 3.000000
v 8.600000 -0.040000 3.000000
v -4.033333 -0.800000 3.000000
v -4.033333 -0.800000 1.000000
v -4.033333 -0.800000 -1.000000
v -4.033333 -0.800000 -3.000000
v -3.066667 -0.600000 3.000000
v -3.066667 -0.600000 1.000000
v -3.066667 -0.600000 -1.000000
v -3.066667 -0.600000 -3.000000
v -2.100000 -0.400000 3.000000
v -2.100000 -0.400000 1.000000
v -2.100000 -0.400000 -1.000000
v -2.100000 -0.400000 -3.000000
v -1.133333 -0.200000 3.000000
v -1.133333 -0.200000 1.000000
v -1.133333 -0.200000 -1.000000
v -1.133333 -0.200000 -3.000000
v -0.066667 0.000000 3.000000
v -0.066667 0.000000 1.000000
v -0.066667 0.000000 -1.000000
v -0.066667 0.000000 -3.000000
v 0.033333 0.000000 3.000000
v 0.033333 0.000000 1.000000
v 0.033333 0.000000 -1.000000
v 0.033333 0.000000 -3.000000
v 0.133333 0.000000 3.000000
v 0.133333 0.000000 1.000000
v 0.133333 0.000000 -1.000000
v 0.133333 0.000000 -3.000000
v 0.233333 0.000000 3.000000
v 0.233333 0.000000 1.000000
v 0.233333 0.000000 -1.000000
v 0.233333 0.000000 -3.000000
v 4.066667 0.000000 -3.000000
v 4.066667 0.000000 -1.000000
v 4.066667 0.000000 1.000000
v 4.066667 0.000000 3.000000
v 3.133333 0.000000 -3.000000
v 3.133333 0.000000 -1.000000
v 3.133333 0.000000 1.000000
v 3.133333 0.000000 3.000000
v 2.200000 0.000000 -3.000000
v 2.200000 0.000000 -1.000000
v 2.200000 0.000000 1.000000
v 2.200000 0.000000 3.000000
v 1.266667 0.000000 -3.000000
v 1.266667 0.000000 -1.000000
v 1.266667 0.000000 1.000000
v 1.266667 0.000000 3.000000
vn -0.0000 1.0000 -0.0000
vn -0.2026 0.9793 -0.0000
vn -0.0995 0.9950 -0.0000
vn 0.1644 0.9864 -0.0000
vn -0.0000 0.9990 0.0444
vn -0.3704 0.9259 -0.0741
vn 0.8104 0.5697 -0.1367
vn -0.3704 0.9259 0.0741
vn 0.7593 0.6328 0.1519
vn 0.7593 0.6328 -0.1519
vn 0.8104 0.5697 0.1367
vn -0.0000 0.9990 -0.0444
vn 0.3704 0.9259 0.0741
vn -0.7593 0.6328 0.1519
vn 0.3704 0.9259 -0.0741
vn -0.7593 0.6328 -0.1519
vn 0.0995 0.9950 -0.0000
vn -0.1333 0.9909 0.0174
vn 0.2332 0.9713 -0.0466
vn 0.2332 0.9713 0.0466
vn -0.1333 0.9909 -0.0174
vt 0.333333 0.200000
vt 0.266667 0.000000
vt 0.266667 0.160000
vt 0.333333 0.800000
vt 0.323333 1.000000
vt 0.323333 0.800000
vt 0.283333 0.800000
vt 0.226667 1.000000
vt 0.226667 0.800000
vt 1.000000 0.000000
vt 0.000000 1.000000
vt 0.000000 0.000000
vt 0.750000 0.750000
vt 1.000000 1.000000
vt 0.750000 1.000000
vt 0.000000 0.750000
vt 0.250000 1.000000
vt 0.250000 0.750000
vt 0.500000 1.000000
vt 0.500000 0.750000
vt 0.250000 0.000000
vt 0.000000 0.250000
vt 0.250000 0.500000
vt 0.000000 0.500000
vt 0.500000 0.250000
vt 0.250000 0.250000
vt 0.500000 0.500000
vt 0.750000 0.000000
vt 0.500000 0.000000
vt 0.750000 0.250000
vt 1.000000 0.500000
vt 0.750000 0.500000
vt 1.000000 0.750000
vt 1.000000 0.250000
vt 0.056667 0.800000
vt 0.000000 0.800000
vt 0.113333 0.800000
vt 0.056667 1.000000
vt 0.170000 0.800000
vt 0.113333 1.000000
vt 0.170000 1.000000
vt 0.056667 0.000000
vt 0.000000 0.200000
vt 0.056667 0.200000
vt 0.000000 0.400000
vt 0.056667 0.400000
vt 0.000000 0.600000
vt 0.056667 0.600000
vt 0.113333 0.000000
vt 0.113333 0.200000
vt 0.113333 0.400000
vt 0.113333 0.600000
vt 0.170000 0.000000
vt 0.170000 0.200000
vt 0.170000 0.400000
vt 0.170000 0.600000
vt 0.226667 0.000000
vt 0.226667 0.200000
vt 0.226667 0.400000
vt 0.226667 0.600000
vt 0.283333 0.000000
vt 0.283333 0.200000
vt 0.283333 0.400000
vt 0.283333 0.600000
vt 0.293333 0.800000
vt 0.283333 1.000000
vt 0.303333 0.800000
vt 0.293333 1.000000
vt 0.313333 0.800000
vt 0.303333 1.000000
vt 0.313333 1.000000
vt 0.293333 0.000000
vt 0.293333 0.200000
vt 0.293333 0.400000
vt 0.293333 0.600000
vt 0.303333 0.000000
vt 0.303333 0.200000
vt 0.303333 0.400000
vt 0.303333 0.600000
vt 0.313333 0.000000
vt 0.313333 0.200000
vt 0.313333 0.400000
vt 0.313333 0.600000
vt 0.323333 0.000000
vt 0.323333 0.200000
vt 0.323333 0.400000
vt 0.323333 0.600000
vt 0.333333 0.000000
vt 0.333333 0.400000
vt 0.333333 0.600000
vt 0.066667 0.040000
vt 0.133333 0.080000
vt 0.066667 0.000000
vt 0.200000 0.120000
vt 0.133333 0.000000
vt 0.200000 0.000000
vt 0.066667 0.200000
vt 0.066667 0.160000
vt 0.066667 0.120000
vt 0.066667 0.080000
vt 0.133333 0.400000
vt 0.133333 0.320000
vt 0.133333 0.240000
vt 0.133333 0.160000
vt 0.200000 0.600000
vt 0.200000 0.480000
vt 0.200000 0.360000
vt 0.200000 0.240000
vt 0.266667 0.800000
vt 0.266667 0.640000
vt 0.266667 0.480000
vt 0.266667 0.320000
vt 0.333333 1.000000
s 0
usemtl road
f 99/1/1 98/2/1 274/3/1
f 138/12/1 127/12/1 210/12/1
f 47/13/5 26/14/5 36/15/5
f 27/16/6 38/17/6 25/11/6
f 41/18/1 37/19/1 38/17/1
f 47/13/7 37/19/7 44/20/7
f 30/21/8 29/22/8 23/12/8
f 29/22/6 40/23/6 28/24/6
f 40/23/8 27/16/8 28/24/8
f 30/21/9 42/25/9 39/26/9
f 42/25/10 40/23/10 39/26/10
f 43/27/1 41/18/1 40/23/1
f 32/28/1 42/25/1 31/29/1
f 45/30/1 43/27/1 42/25/1
f 43/27/11 47/13/11 44/20/11
f 24/10/1 45/30/1 32/28/1
f 45/30/1 34/31/1 46/32/1
f 34/31/12 47/13/12 46/32/12
f 60/33/1 61/15/1 72/13/1
f 52/16/13 63/17/13 50/11/13
f 66/18/1 62/19/1 63/17/1
f 72/13/14 62/19/14 69/20/14
f 55/21/15 54/22/15 48/12/15
f 54/22/13 65/23/13 53/24/13
f 65/23/15 52/16/15 53/24/15
f 55/21/16 67/25/16 64/26/16
f 67/25/14 65/23/14 64/26/14
f 68/27/1 66/18/1 65/23/1
f 57/28/1 67/25/1 56/29/1
f 67/25/1 71/32/1 68/27/1
f 68/27/16 72/13/16 69/20/16
f 49/10/1 70/30/1 57/28/1
f 58/34/1 71/32/1 70/30/1
f 59/31/1 72/13/1 71/32/1
f 198/12/1 16/12/1 131/12/1
f 202/12/1 130/12/1 198/12/1
f 206/12/1 129/12/1 202/12/1
f 210/12/1 128/12/1 206/12/1
f 118/12/1 134/12/1 14/12/1
f 195/12/1 133/12/1 134/12/1
f 196/12/1 132/12/1 133/12/1
f 197/12/1 131/12/1 132/12/1
f 117/12/1 195/12/1 118/12/1
f 199/12/1 196/12/1 195/12/1
f 200/12/1 197/12/1 196/12/1
f 201/12/1 198/12/1 197/12/1
f 116/12/1 199/12/1 117/12/1
f 203/12/1 200/12/1 199/12/1
f 204/12/1 201/12/1 200/12/1
f 205/12/1 202/12/1 201/12/1
f 115/12/1 203/12/1 116/12/1
f 207/12/1 204/12/1 203/12/1
f 208/12/1 205/12/1 204/12/1
f 209/12/1 206/12/1 205/12/1
f 13/12/1 207/12/1 115/12/1
f 135/12/1 208/12/1 207/12/1
f 136/12/1 209/12/1 208/12/1
f 137/12/1 210/12/1 209/12/1
f 262/91/1 2/12/1 79/12/1
f 266/92/1 95/93/1 262/91/1
f 270/94/1 96/95/1 266/92/1
f 274/3/1 97/96/1 270/94/1
f 91/97/1 82/12/1 4/12/1
f 259/98/1 81/12/1 82/12/1
f 260/99/1 80/12/1 81/12/1
f 261/100/1 79/12/1 80/12/1
f 92/101/1 259/98/1 91/97/1
f 263/102/1 260/99/1 259/98/1
f 264/103/1 261/100/1 260/99/1
f 265/104/1 262/91/1 261/100/1
f 93/105/1 263/102/1 92/101/1
f 267/106/1 264/103/1 263/102/1
f 268/107/1 265/104/1 264/103/1
f 269/108/1 266/92/1 265/104/1
f 94/109/1 267/106/1 93/105/1
f 271/110/1 268/107/1 267/106/1
f 272/111/1 269/108/1 268/107/1
f 273/112/1 270/94/1 269/108/1
f 6/113/1 271/110/1 94/109/1
f 102/4/1 272/111/1 271/110/1
f 101/90/1 273/112/1 272/111/1
f 100/89/1 274/3/1 273/112/1
f 99/1/1 5/88/1 98/2/1
f 138/12/1 15/12/1 127/12/1
f 47/13/18 35/33/18 26/14/18
f 27/16/1 41/18/1 38/17/1
f 41/18/16 44/20/16 37/19/16
f 47/13/5 36/15/5 37/19/5
f 30/21/14 39/26/14 29/22/14
f 29/22/16 39/26/16 40/23/16
f 40/23/1 41/18/1 27/16/1
f 30/21/1 31/29/1 42/25/1
f 42/25/1 43/27/1 40/23/1
f 43/27/14 44/20/14 41/18/14
f 32/28/1 45/30/1 42/25/1
f 45/30/1 46/32/1 43/27/1
f 43/27/12 46/32/12 47/13/12
f 24/10/19 33/34/19 45/30/19
f 45/30/20 33/34/20 34/31/20
f 34/31/21 35/33/21 47/13/21
f 60/33/1 51/14/1 61/15/1
f 52/16/1 66/18/1 63/17/1
f 66/18/9 69/20/9 62/19/9
f 72/13/1 61/15/1 62/19/1
f 55/21/10 64/26/10 54/22/10
f 54/22/9 64/26/9 65/23/9
f 65/23/1 66/18/1 52/16/1
f 55/21/1 56/29/1 67/25/1
f 67/25/1 68/27/1 65/23/1
f 68/27/10 69/20/10 66/18/10
f 57/28/1 70/30/1 67/25/1
f 67/25/1 70/30/1 71/32/1
f 68/27/1 71/32/1 72/13/1
f 49/10/1 58/34/1 70/30/1
f 58/34/1 59/31/1 71/32/1
f 59/31/1 60/33/1 72/13/1
f 198/12/1 130/12/1 16/12/1
f 202/12/1 129/12/1 130/12/1
f 206/12/1 128/12/1 129/12/1
f 210/12/1 127/12/1 128/12/1
f 118/12/1 195/12/1 134/12/1
f 195/12/1 196/12/1 133/12/1
f 196/12/1 197/12/1 132/12/1
f 197/12/1 198/12/1 131/12/1
f 117/12/1 199/12/1 195/12/1
f 199/12/1 200/12/1 196/12/1
f 200/12/1 201/12/1 197/12/1
f 201/12/1 202/12/1 198/12/1
f 116/12/1 203/12/1 199/12/1
f 203/12/1 204/12/1 200/12/1
f 204/12/1 205/12/1 201/12/1
f 205/12/1 206/12/1 202/12/1
f 115/12/1 207/12/1 203/12/1
f 207/12/1 208/12/1 204/12/1
f 208/12/1 209/12/1 205/12/1
f 209/12/1 210/12/1 206/12/1
f 13/12/1 135/12/1 207/12/1
f 135/12/1 136/12/1 208/12/1
f 136/12/1 137/12/1 209/12/1
f 137/12/1 138/12/1 210/12/1
f 262/91/1 95/93/1 2/12/1
f 266/92/1 96/95/1 95/93/1
f 270/94/1 97/96/1 96/95/1
f 274/3/1 98/2/1 97/96/1
f 91/97/1 259/98/1 82/12/1
f 259/98/1 260/99/1 81/12/1
f 260/99/1 261/100/1 80/12/1
f 261/100/1 262/91/1 79/12/1
f 92/101/1 263/102/1 259/98/1
f 263/102/1 264/103/1 260/99/1
f 264/103/1 265/104/1 261/100/1
f 265/104/1 266/92/1 262/91/1
f 93/105/1 267/106/1 263/102/1
f 267/106/1 268/107/1 264/103/1
f 268/107/1 269/108/1 265/104/1
f 269/108/1 270/94/1 266/92/1
f 94/109/1 271/110/1 267/106/1
f 271/110/1 272/111/1 268/107/1
f 272/111/1 273/112/1 269/108/1
f 273/112/1 274/3/1 270/94/1
f 6/113/1 102/4/1 271/110/1
f 102/4/1 101/90/1 272/111/1
f 101/90/1 100/89/1 273/112/1
f 100/89/1 99/1/1 274/3/1
usemtl Material.001
f 102/4/1 103/5/1 258/6/1
f 114/7/2 83/8/2 242/9/2
f 10/10/1 11/11/1 9/12/1
f 126/12/3 115/12/3 226/12/3
f 20/10/1 21/11/1 19/12/1
f 158/12/17 159/12/17 178/12/17
f 166/12/17 73/12/17 119/12/17
f 170/12/17 162/12/17 166/12/17
f 174/12/17 161/12/17 170/12/17
f 178/12/17 160/12/17 174/12/17
f 82/12/17 122/12/17 4/12/17
f 163/12/17 121/12/17 122/12/17
f 164/12/17 120/12/17 121/12/17
f 165/12/17 119/12/17 120/12/17
f 81/12/17 163/12/17 82/12/17
f 167/12/17 164/12/17 163/12/17
f 168/12/17 165/12/17 164/12/17
f 169/12/17 166/12/17 165/12/17
f 80/12/17 167/12/17 81/12/17
f 171/12/17 168/12/17 167/12/17
f 172/12/17 169/12/17 168/12/17
f 173/12/17 170/12/17 169/12/17
f 79/12/17 171/12/17 80/12/17
f 175/12/17 172/12/17 171/12/17
f 176/12/17 173/12/17 172/12/17
f 177/12/17 174/12/17 173/12/17
f 2/12/17 175/12/17 79/12/17
f 155/12/17 176/12/17 175/12/17
f 156/12/17 177/12/17 176/12/17
f 157/12/17 178/12/17 177/12/17
f 214/12/3 14/12/3 151/12/3
f 218/12/3 118/12/3 214/12/3
f 222/12/3 117/12/3 218/12/3
f 226/12/3 116/12/3 222/12/3
f 162/12/3 154/12/3 73/12/3
f 211/12/3 153/12/3 154/12/3
f 212/12/3 152/12/3 153/12/3
f 213/12/3 151/12/3 152/12/3
f 161/12/3 211/12/3 162/12/3
f 215/12/3 212/12/3 211/12/3
f 216/12/3 213/12/3 212/12/3
f 217/12/3 214/12/3 213/12/3
f 160/12/3 215/12/3 161/12/3
f 219/12/3 216/12/3 215/12/3
f 220/12/3 217/12/3 216/12/3
f 221/12/3 218/12/3 217/12/3
f 159/12/3 219/12/3 160/12/3
f 223/12/3 220/12/3 219/12/3
f 224/12/3 221/12/3 220/12/3
f 225/12/3 222/12/3 221/12/3
f 74/12/3 223/12/3 159/12/3
f 123/12/3 224/12/3 223/12/3
f 124/12/3 225/12/3 224/12/3
f 125/12/3 226/12/3 225/12/3
f 230/35/2 3/11/2 75/36/2
f 234/37/2 86/38/2 230/35/2
f 238/39/2 85/40/2 234/37/2
f 242/9/2 84/41/2 238/39/2
f 107/42/2 78/43/2 1/12/2
f 227/44/2 77/45/2 78/43/2
f 228/46/2 76/47/2 77/45/2
f 229/48/2 75/36/2 76/47/2
f 108/49/2 227/44/2 107/42/2
f 231/50/2 228/46/2 227/44/2
f 232/51/2 229/48/2 228/46/2
f 233/52/2 230/35/2 229/48/2
f 109/53/2 231/50/2 108/49/2
f 235/54/2 232/51/2 231/50/2
f 236/55/2 233/52/2 232/51/2
f 237/56/2 234/37/2 233/52/2
f 110/57/2 235/54/2 109/53/2
f 239/58/2 236/55/2 235/54/2
f 240/59/2 237/56/2 236/55/2
f 241/60/2 238/39/2 237/56/2
f 8/61/2 239/58/2 110/57/2
f 111/62/2 240/59/2 239/58/2
f 112/63/2 241/60/2 240/59/2
f 113/64/2 242/9/2 241/60/2
f 246/65/1 7/66/1 114/7/1
f 250/67/1 106/68/1 246/65/1
f 254/69/1 105/70/1 250/67/1
f 258/6/1 104/71/1 254/69/1
f 87/72/1 111/62/1 8/61/1
f 243/73/1 112/63/1 111/62/1
f 244/74/1 113/64/1 112/63/1
f 245/75/1 114/7/1 113/64/1
f 88/76/1 243/73/1 87/72/1
f 247/77/1 244/74/1 243/73/1
f 248/78/1 245/75/1 244/74/1
f 249/79/1 246/65/1 245/75/1
f 89/80/1 247/77/1 88/76/1
f 251/81/1 248/78/1 247/77/1
f 252/82/1 249/79/1 248/78/1
f 253/83/1 250/67/1 249/79/1
f 90/84/1 251/81/1 89/80/1
f 255/85/1 252/82/1 251/81/1
f 256/86/1 253/83/1 252/82/1
f 257/87/1 254/69/1 253/83/1
f 5/88/1 255/85/1 90/84/1
f 99/1/1 256/86/1 255/85/1
f 100/89/1 257/87/1 256/86/1
f 101/90/1 258/6/1 257/87/1
f 102/4/1 6/113/1 103/5/1
f 114/7/2 7/66/2 83/8/2
f 10/10/1 12/14/1 11/11/1
f 126/12/3 13/12/3 115/12/3
f 20/10/1 22/14/1 21/11/1
f 158/12/17 74/12/17 159/12/17
f 166/12/17 162/12/17 73/12/17
f 170/12/17 161/12/17 162/12/17
f 174/12/17 160/12/17 161/12/17
f 178/12/17 159/12/17 160/12/17
f 82/12/17 163/12/17 122/12/17
f 163/12/17 164/12/17 121/12/17
f 164/12/17 165/12/17 120/12/17
f 165/12/17 166/12/17 119/12/17
f 81/12/17 167/12/17 163/12/17
f 167/12/17 168/12/17 164/12/17
f 168/12/17 169/12/17 165/12/17
f 169/12/17 170/12/17 166/12/17
f 80/12/17 171/12/17 167/12/17
f 171/12/17 172/12/17 168/12/17
f 172/12/17 173/12/17 169/12/17
f 173/12/17 174/12/17 170/12/17
f 79/12/17 175/12/17 171/12/17
f 175/12/17 176/12/17 172/12/17
f 176/12/17 177/12/17 173/12/17
f 177/12/17 178/12/17 174/12/17
f 2/12/17 155/12/17 175/12/17
f 155/12/17 156/12/17 176/12/17
f 156/12/17 157/12/17 177/12/17
f 157/12/17 158/12/17 178/12/17
f 214/12/3 118/12/3 14/12/3
f 218/12/3 117/12/3 118/12/3
f 222/12/3 116/12/3 117/12/3
f 226/12/3 115/12/3 116/12/3
f 162/12/3 211/12/3 154/12/3
f 211/12/3 212/12/3 153/12/3
f 212/12/3 213/12/3 152/12/3
f 213/12/3 214/12/3 151/12/3
f 161/12/3 215/12/3 211/12/3
f 215/12/3 216/12/3 212/12/3
f 216/12/3 217/12/3 213/12/3
f 217/12/3 218/12/3 214/12/3
f 160/12/3 219/12/3 215/12/3
f 219/12/3 220/12/3 216/12/3
f 220/12/3 221/12/3 217/12/3
f 221/12/3 222/12/3 218/12/3
f 159/12/3 223/12/3 219/12/3
f 223/12/3 224/12/3 220/12/3
f 224/12/3 225/12/3 221/12/3
f 225/12/3 226/12/3 222/12/3
f 74/12/3 123/12/3 223/12/3
f 123/12/3 124/12/3 224/12/3
f 124/12/3 125/12/3 225/12/3
f 125/12/3 126/12/3 226/12/3
f 230/35/2 86/38/2 3/11/2
f 234/37/2 85/40/2 86/38/2
f 238/39/2 84/41/2 85/40/2
f 242/9/2 83/8/2 84/41/2
f 107/42/2 227/44/2 78/43/2
f 227/44/2 228/46/2 77/45/2
f 228/46/2 229/48/2 76/47/2
f 229/48/2 230/35/2 75/36/2
f 108/49/2 231/50/2 227/44/2
f 231/50/2 232/51/2 228/46/2
f 232/51/2 233/52/2 229/48/2
f 233/52/2 234/37/2 230/35/2
f 109/53/2 235/54/2 231/50/2
f 235/54/2 236/55/2 232/51/2
f 236/55/2 237/56/2 233/52/2
f 237/56/2 238/39/2 234/37/2
f 110/57/2 239/58/2 235/54/2
f 239/58/2 240/59/2 236/55/2
f 240/59/2 241/60/2 237/56/2
f 241/60/2 242/9/2 238/39/2
f 8/61/2 111/62/2 239/58/2
f 111/62/2 112/63/2 240/59/2
f 112/63/2 113/64/2 241/60/2
f 113/64/2 114/7/2 242/9/2
f 246/65/1 106/68/1 7/66/1
f 250/67/1 105/70/1 106/68/1
f 254/69/1 104/71/1 105/70/1
f 258/6/1 103/5/1 104/71/1
f 87/72/1 243/73/1 111/62/1
f 243/73/1 244/74/1 112/63/1
f 244/74/1 245/75/1 113/64/1
f 245/75/1 246/65/1 114/7/1
f 88/76/1 247/77/1 243/73/1
f 247/77/1 248/78/1 244/74/1
f 248/78/1 249/79/1 245/75/1
f 249/79/1 250/67/1 246/65/1
f 89/80/1 251/81/1 247/77/1
f 251/81/1 252/82/1 248/78/1
f 252/82/1 253/83/1 249/79/1
f 253/83/1 254/69/1 250/67/1
f 90/84/1 255/85/1 251/81/1
f 255/85/1 256/86/1 252/82/1
f 256/86/1 257/87/1 253/83/1
f 257/87/1 258/6/1 254/69/1
f 5/88/1 99/1/1 255/85/1
f 99/1/1 100/89/1 256/86/1
f 100/89/1 101/90/1 257/87/1
f 101/90/1 102/4/1 258/6/1
usemtl Material.008
f 150/12/4 139/12/4 194/12/4
f 182/12/4 18/12/4 143/12/4
f 186/12/4 142/12/4 182/12/4
f 190/12/4 141/12/4 186/12/4
f 194/12/4 140/12/4 190/12/4
f 130/12/4 146/12/4 16/12/4
f 179/12/4 145/12/4 146/12/4
f 180/12/4 144/12/4 145/12/4
f 181/12/4 143/12/4 144/12/4
f 129/12/4 179/12/4 130/12/4
f 183/12/4 180/12/4 179/12/4
f 184/12/4 181/12/4 180/12/4
f 185/12/4 182/12/4 181/12/4
f 128/12/4 183/12/4 129/12/4
f 187/12/4 184/12/4 183/12/4
f 188/12/4 185/12/4 184/12/4
f 189/12/4 186/12/4 185/12/4
f 127/12/4 187/12/4 128/12/4
f 191/12/4 188/12/4 187/12/4
f 192/12/4 189/12/4 188/12/4
f 193/12/4 190/12/4 189/12/4
f 15/12/4 191/12/4 127/12/4
f 147/12/4 192/12/4 191/12/4
f 148/12/4 193/12/4 192/12/4
f 149/12/4 194/12/4 193/12/4
f 150/12/4 17/12/4 139/12/4
f 182/12/4 142/12/4 18/12/4
f 186/12/4 141/12/4 142/12/4
f 190/12/4 140/12/4 141/12/4
f 194/12/4 139/12/4 140/12/4
f 130/12/4 179/12/4 146/12/4
f 179/12/4 180/12/4 145/12/4
f 180/12/4 181/12/4 144/12/4
f 181/12/4 182/12/4 143/12/4
f 129/12/4 183/12/4 179/12/4
f 183/12/4 184/12/4 180/12/4
f 184/12/4 185/12/4 181/12/4
f 185/12/4 186/12/4 182/12/4
f 128/12/4 187/12/4 183/12/4
f 187/12/4 188/12/4 184/12/4
f 188/12/4 189/12/4 185/12/4
f 189/12/4 190/12/4 186/12/4
f 127/12/4 191/12/4 187/12/4
f 191/12/4 192/12/4 188/12/4
f 192/12/4 193/12/4 189/12/4
f 193/12/4 194/12/4 190/12/4
f 15/12/4 147/12/4 191/12/4
f 147/12/4 148/12/4 192/12/4
f 148/12/4 149/12/4 193/12/4
f 149/12/4 150/12/4 194/12/4
