# Blender 4.0.2
# www.blender.org
mtllib road.mtl
o Plane.003
v -5.000000 -1.000000 5.000000
v 5.000000 0.000000 5.000000
v -5.000000 -1.000000 -5.000000
v 5.000000 0.000000 -5.000000
v 0.000000 0.000000 5.000000
v 0.000000 0.000000 -5.000000
v 7.000000 -0.200000 5.000000
v 7.000000 -0.200000 -5.000000
v 2.400000 0.010000 -2.000000
v 2.600000 0.010000 -2.000000
v 2.400000 0.010000 -4.000000
v 2.600000 0.010000 -4.000000
v 19.000000 -1.000000 -4.999999
v 9.000001 0.000000 -5.000002
v 18.999998 -1.000000 5.000002
v 8.999998 0.000000 4.999999
v 14.000001 0.000000 -5.000000
v 13.999998 0.000000 5.000000
v 7.000002 -0.200000 -5.000002
v 6.999998 -0.200000 4.999998
v 11.599999 0.010000 1.999999
v 11.399999 0.010000 1.999999
v 11.599998 0.010000 3.999999
v 11.399999 0.010000 3.999999
vn -0.0000 1.0000 -0.0000
vn -0.1961 0.9806 -0.0000
vn 0.0995 0.9950 -0.0000
vn 0.1961 0.9806 -0.0000
vn -0.0995 0.9950 -0.0000
vt 1.000000 0.000000
vt 0.500000 1.000000
vt 0.500000 0.000000
vt 0.000000 1.000000
vt 0.000000 0.000000
vt 1.000000 1.000000
s 0
usemtl Material.006
f 2/1/1 6/2/1 5/3/1
f 2/1/1 4/6/1 6/2/1
f 14/1/1 18/2/1 17/3/1
f 14/1/1 16/6/1 18/2/1
usemtl Material.020
f 5/3/2 3/4/2 1/5/2
f 2/1/3 8/6/3 4/6/3
f 10/1/1 11/4/1 9/5/1
f 5/3/2 6/2/2 3/4/2
f 2/1/3 7/1/3 8/6/3
f 10/1/1 12/6/1 11/4/1
f 17/3/4 15/4/4 13/5/4
f 14/1/5 20/6/5 16/6/5
f 22/1/1 23/4/1 21/5/1
f 17/3/4 18/2/4 15/4/4
f 14/1/5 19/1/5 20/6/5
f 22/1/1 24/6/1 23/4/1
