# Blender 4.0.2
# www.blender.org
mtllib roadL.mtl
o Plane.004
v 2.500002 -0.500000 -4.999999
v -4.999999 0.000000 -5.000001
v 2.499998 -0.500000 5.000001
v -5.000001 0.000000 4.999999
v 0.000002 0.000000 -5.000000
v -0.000002 0.000000 5.000000
v -6.999999 -0.200000 -5.000002
v -7.000001 -0.200000 4.999998
v -2.400001 0.010000 1.999999
v -2.600001 0.010000 1.999999
v -2.400001 0.010000 3.999999
v -2.600001 0.010000 3.999999
v -7.000003 -0.200000 5.000000
v -6.999997 -0.200000 -5.000000
vn -0.0000 1.0000 -0.0000
vn 0.1961 0.9806 -0.0000
vn -0.0995 0.9950 -0.0000
vt 1.000000 0.000000
vt 0.500000 1.000000
vt 0.500000 0.000000
vt 0.000000 1.000000
vt 0.000000 0.000000
vt 1.000000 1.000000
s 0
usemtl Material.006
f 2/1/1 6/2/1 5/3/1
f 2/1/1 4/6/1 6/2/1
usemtl Material.020
f 5/3/2 3/4/2 1/5/2
f 2/1/3 8/6/3 4/6/3
f 10/1/1 11/4/1 9/5/1
f 5/3/2 6/2/2 3/4/2
f 2/1/3 7/1/3 8/6/3
f 10/1/1 12/6/1 11/4/1
l 13 14
